<?xml version="1.0" encoding="UTF-8" standalone="no"?>
<svg
   xmlns:dc="http://purl.org/dc/elements/1.1/"
   xmlns:cc="http://creativecommons.org/ns#"
   xmlns:rdf="http://www.w3.org/1999/02/22-rdf-syntax-ns#"
   xmlns:svg="http://www.w3.org/2000/svg"
   xmlns="http://www.w3.org/2000/svg"
   id="svg47"
   xml:space="preserve"
   enable-background="new 0 0 595.28 841.89"
   viewBox="0 0 249.99998 123.00001"
   height="123.00002"
   width="250"
   y="0px"
   x="0px"
   version="1.1"><metadata
     id="metadata53"><rdf:RDF><cc:Work
         rdf:about=""><dc:format>image/svg+xml</dc:format><dc:type
           rdf:resource="http://purl.org/dc/dcmitype/StillImage" /><dc:title></dc:title></cc:Work></rdf:RDF></metadata><defs
     id="defs51" /><g
     transform="translate(-79.280507,-21.600792)"
     style="display:none"
     display="none"
     id="Ebene_4"><rect
       style="display:inline;fill:#ffcd05"
       id="rect10"
       height="227"
       width="417"
       display="inline"
       y="3"
       x="32" /></g><g
     transform="translate(-79.280507,-21.600792)"
     style="display:none"
     display="none"
     id="Ebene_3"><rect
       style="display:inline;fill:none"
       id="rect24"
       height="32.875"
       width="281"
       display="inline"
       y="116"
       x="81" /><text
       style="font-size:27px;font-family:MyriadPro-Regular;display:inline"
       id="text26"
       font-size="27"
       display="inline"
       transform="matrix(1,0,0,0.75,81,135.1694)">HIMALAYA ARCHIV WIEN</text>
<line
       style="display:inline;fill:none;stroke:#636466;stroke-width:5"
       id="line28"
       y2="25"
       x2="361"
       y1="104"
       x1="311.375"
       display="inline" /><line
       style="display:inline;fill:none;stroke:#636466;stroke-width:4"
       id="line30"
       y2="60.5"
       x2="283.44299"
       y1="104"
       x1="311.5"
       display="inline" /></g><g
     id="g135"><g
       id="Ebene_1"
       transform="matrix(0.99341474,0,0,0.99341474,-78.758424,-19.737624)"><line
         x1="84"
         y1="25"
         x2="84"
         y2="102"
         id="line13"
         style="fill:none;stroke:#000000;stroke-width:8;stroke-linecap:square" /><line
         x1="154.625"
         y1="25"
         x2="154.625"
         y2="102"
         id="line15"
         style="fill:none;stroke:#000000;stroke-width:8;stroke-linecap:square" /><line
         x1="85"
         y1="62.625"
         x2="228.5"
         y2="62.625"
         id="line17"
         style="fill:none;stroke:#000000;stroke-width:5" /><polyline
         points="255,104 205.25,25 155.625,104  "
         id="polyline19"
         style="fill:none;stroke:#000000;stroke-width:8;stroke-linejoin:round" /><polyline
         points="327,22 277.375,101 277.25,101 227.5,22     "
         id="polyline21"
         style="fill:none;stroke:#636466;stroke-width:8;stroke-linejoin:round" /></g><g
       aria-label="HIMALAYA ARCHIVE"
       style="font-size:30.68037605px;font-family:MyriadPro-Regular;stroke-width:1.02267921"
       id="text35"><path
         d="m -8.9645386e-8,102.01463 v 20.67858 H 2.6691926 v -9.695 H 12.670995 v 9.695 h 2.699873 v -20.67858 h -2.699873 v 8.65187 H 2.6691926 v -8.65187 z"
         style="font-style:normal;font-variant:normal;font-weight:normal;font-stretch:normal;font-family:'Myriad Pro';-inkscape-font-specification:'Myriad Pro';stroke-width:1.02267921"
         id="path82" /><path
         d="m 20.014151,102.01463 v 20.67858 h 2.669192 v -20.67858 z"
         style="font-style:normal;font-variant:normal;font-weight:normal;font-stretch:normal;font-family:'Myriad Pro';-inkscape-font-specification:'Myriad Pro';stroke-width:1.02267921"
         id="path84" /><path
         d="m 45.272729,122.69321 h 2.607832 l -1.288576,-20.67858 h -3.405522 l -3.681645,10.00181 c -0.920411,2.60783 -1.65674,4.87818 -2.178307,6.96444 h -0.09204 c -0.521566,-2.14763 -1.227215,-4.41797 -2.086265,-6.96444 L 31.619961,102.01463 H 28.21444 l -1.441978,20.67858 h 2.546471 l 0.552247,-8.86663 c 0.184082,-3.09872 0.337484,-6.5656 0.398845,-9.14275 h 0.06136 c 0.582927,2.45443 1.411297,5.12362 2.393069,8.03825 l 3.344161,9.84841 h 2.024905 L 41.744486,112.538 c 1.043132,-2.85327 1.902183,-5.43042 2.607832,-7.85417 h 0.09204 c -0.03068,2.57715 0.153402,6.04403 0.306803,8.92799 z"
         style="font-style:normal;font-variant:normal;font-weight:normal;font-stretch:normal;font-family:'Myriad Pro';-inkscape-font-specification:'Myriad Pro';stroke-width:1.02267921"
         id="path86" /><path
         d="m 62.389982,116.18897 2.208987,6.50424 h 2.853275 l -7.056487,-20.67858 h -3.221439 l -7.025806,20.67858 h 2.761234 l 2.147626,-6.50424 z m -6.780363,-2.08627 2.024905,-5.98267 c 0.398844,-1.2579 0.736329,-2.51579 1.043132,-3.74301 h 0.06136 c 0.306804,1.19654 0.613608,2.42375 1.073813,3.77369 l 2.024905,5.95199 z"
         style="font-style:normal;font-variant:normal;font-weight:normal;font-stretch:normal;font-family:'Myriad Pro';-inkscape-font-specification:'Myriad Pro';stroke-width:1.02267921"
         id="path88" /><path
         d="m 70.468986,122.69321 h 11.505141 v -2.23967 h -8.835948 v -18.43891 h -2.669193 z"
         style="font-style:normal;font-variant:normal;font-weight:normal;font-stretch:normal;font-family:'Myriad Pro';-inkscape-font-specification:'Myriad Pro';stroke-width:1.02267921"
         id="path90" /><path
         d="m 95.647031,116.18897 2.208987,6.50424 h 2.853272 l -7.056483,-20.67858 h -3.22144 l -7.025806,20.67858 h 2.761234 l 2.147627,-6.50424 z m -6.780363,-2.08627 2.024905,-5.98267 c 0.398845,-1.2579 0.736329,-2.51579 1.043133,-3.74301 h 0.06136 c 0.306803,1.19654 0.613607,2.42375 1.073813,3.77369 l 2.024905,5.95199 z"
         style="font-style:normal;font-variant:normal;font-weight:normal;font-stretch:normal;font-family:'Myriad Pro';-inkscape-font-specification:'Myriad Pro';stroke-width:1.02267921"
         id="path92" /><path
         d="m 108.63106,122.69321 v -8.80527 l 6.93377,-11.87331 h -3.03736 l -2.976,5.70655 c -0.79769,1.5647 -1.50334,2.91464 -2.08626,4.26458 h -0.0614 c -0.64429,-1.44198 -1.2579,-2.69988 -2.05559,-4.26458 l -2.91463,-5.70655 h -3.037362 l 6.534922,11.90399 v 8.77459 z"
         style="font-style:normal;font-variant:normal;font-weight:normal;font-stretch:normal;font-family:'Myriad Pro';-inkscape-font-specification:'Myriad Pro';stroke-width:1.02267921"
         id="path94" /><path
         d="m 126.14764,116.18897 2.20899,6.50424 h 2.85327 l -7.05648,-20.67858 h -3.22144 l -7.02581,20.67858 h 2.76124 l 2.14762,-6.50424 z m -6.78036,-2.08627 2.0249,-5.98267 c 0.39885,-1.2579 0.73633,-2.51579 1.04314,-3.74301 h 0.0614 c 0.3068,1.19654 0.6136,2.42375 1.07381,3.77369 l 2.0249,5.95199 z"
         style="font-style:normal;font-variant:normal;font-weight:normal;font-stretch:normal;font-family:'Myriad Pro';-inkscape-font-specification:'Myriad Pro';stroke-width:1.02267921"
         id="path96" /><path
         d="m 151.43498,116.18897 2.20899,6.50424 h 2.85327 l -7.05648,-20.67858 h -3.22144 l -7.02581,20.67858 h 2.76123 l 2.14763,-6.50424 z m -6.78036,-2.08627 2.0249,-5.98267 c 0.39885,-1.2579 0.73633,-2.51579 1.04313,-3.74301 h 0.0614 c 0.3068,1.19654 0.6136,2.42375 1.07381,3.77369 l 2.0249,5.95199 z"
         style="font-style:normal;font-variant:normal;font-weight:normal;font-stretch:normal;font-family:'Myriad Pro';-inkscape-font-specification:'Myriad Pro';stroke-width:1.02267921"
         id="path98" /><path
         d="m 159.51399,122.69321 h 2.66919 v -8.95867 h 2.5158 c 2.42375,0.092 3.52824,1.16585 4.14185,4.01913 0.58292,2.57715 1.04313,4.35661 1.38061,4.93954 h 2.76124 c -0.42953,-0.79769 -0.92041,-2.79192 -1.59538,-5.67587 -0.49089,-2.14763 -1.44198,-3.62029 -3.03736,-4.17253 v -0.0921 c 2.17831,-0.73632 3.89641,-2.54647 3.89641,-5.27702 0,-1.59538 -0.58293,-3.00668 -1.62606,-3.92709 -1.28858,-1.16585 -3.1294,-1.68742 -5.98267,-1.68742 -1.84083,0 -3.77369,0.1534 -5.12363,0.42953 z m 2.66919,-18.53095 c 0.42953,-0.12272 1.34994,-0.24544 2.63852,-0.24544 2.82259,0.0307 4.75546,1.19653 4.75546,3.86572 0,2.36239 -1.81015,3.92709 -4.66342,3.92709 h -2.73056 z"
         style="font-style:normal;font-variant:normal;font-weight:normal;font-stretch:normal;font-family:'Myriad Pro';-inkscape-font-specification:'Myriad Pro';stroke-width:1.02267921"
         id="path100" /><path
         d="m 190.01076,119.90129 c -1.07381,0.52157 -2.73055,0.85905 -4.35661,0.85905 -5.03159,0 -7.94622,-3.25212 -7.94622,-8.31438 0,-5.43043 3.22144,-8.52914 8.06894,-8.52914 1.7181,0 3.16008,0.36816 4.17253,0.85905 l 0.64429,-2.17831 c -0.70565,-0.36816 -2.33171,-0.92041 -4.90886,-0.92041 -6.4122,0 -10.7995,4.38729 -10.7995,10.86085 0,6.78037 4.3873,10.46201 10.21657,10.46201 2.51579,0 4.47933,-0.49089 5.46111,-0.98177 z"
         style="font-style:normal;font-variant:normal;font-weight:normal;font-stretch:normal;font-family:'Myriad Pro';-inkscape-font-specification:'Myriad Pro';stroke-width:1.02267921"
         id="path102" /><path
         d="m 193.90956,102.01463 v 20.67858 h 2.66919 v -9.695 h 10.00181 v 9.695 h 2.69987 v -20.67858 h -2.69987 v 8.65187 h -10.00181 v -8.65187 z"
         style="font-style:normal;font-variant:normal;font-weight:normal;font-stretch:normal;font-family:'Myriad Pro';-inkscape-font-specification:'Myriad Pro';stroke-width:1.02267921"
         id="path104" /><path
         d="m 213.92371,102.01463 v 20.67858 h 2.66919 v -20.67858 z"
         style="font-style:normal;font-variant:normal;font-weight:normal;font-stretch:normal;font-family:'Myriad Pro';-inkscape-font-specification:'Myriad Pro';stroke-width:1.02267921"
         id="path106" /><path
         d="m 228.72028,122.69321 7.39397,-20.67858 h -2.85327 l -3.49757,10.21657 c -0.92041,2.69987 -1.77946,5.3077 -2.36239,7.70077 h -0.0614 c -0.55224,-2.42375 -1.31925,-4.93954 -2.20898,-7.73145 l -3.22144,-10.18589 h -2.88396 l 6.74968,20.67858 z"
         style="font-style:normal;font-variant:normal;font-weight:normal;font-stretch:normal;font-family:'Myriad Pro';-inkscape-font-specification:'Myriad Pro';stroke-width:1.02267921"
         id="path108" /><path
         d="m 249.07958,110.78922 h -8.03826 v -6.53492 h 8.49847 v -2.23967 h -11.16766 v 20.67858 h 11.62786 v -2.23967 h -8.95867 v -7.45533 h 8.03826 z"
         style="font-style:normal;font-variant:normal;font-weight:normal;font-stretch:normal;font-family:'Myriad Pro';-inkscape-font-specification:'Myriad Pro';stroke-width:1.02267921"
         id="path110" /></g></g><g
     transform="translate(-79.280507,-21.600792)"
     style="display:none"
     display="none"
     id="Ebene_2_Kopie"><rect
       style="display:inline;fill:none"
       id="rect38"
       height="32.875"
       width="281.00101"
       display="inline"
       y="123.002"
       x="81.000999" /><text
       style="display:inline"
       id="text44"
       display="inline"
       transform="matrix(1,0,0,0.75,81.001,137.9106)"><tspan
         style="font-size:21px;font-family:MyriadPro-Regular;fill:#666766"
         id="tspan40"
         font-size="21"
         y="0"
         x="0">HIMALAYA ARCHIVE</tspan><tspan
         style="font-size:21px;font-family:MyriadPro-Regular"
         id="tspan42"
         font-size="21"
         y="0"
         x="176.965"> VIENNA</tspan></text>
</g></svg>