<?xml version="1.0" encoding="UTF-8" standalone="no"?>
<svg
   xmlns:dc="http://purl.org/dc/elements/1.1/"
   xmlns:cc="http://creativecommons.org/ns#"
   xmlns:rdf="http://www.w3.org/1999/02/22-rdf-syntax-ns#"
   xmlns:svg="http://www.w3.org/2000/svg"
   xmlns="http://www.w3.org/2000/svg"
   width="73.487846mm"
   height="18.358967mm"
   viewBox="0 0 260.39001 65.051457"
   id="svg7018"
   version="1.1">
  <defs
     id="defs7020" />
  <metadata
     id="metadata7023">
    <rdf:RDF>
      <cc:Work
         rdf:about="">
        <dc:format>image/svg+xml</dc:format>
        <dc:type
           rdf:resource="http://purl.org/dc/dcmitype/StillImage" />
        <dc:title></dc:title>
      </cc:Work>
    </rdf:RDF>
  </metadata>
  <path
     style="fill:#ffffff"
     d="m 25.087528,64.906614 c -8.88579,-0.60991 -15.9248798,-5.37735 -20.4520698,-13.85236 -1.8181,-3.40345 -3.36151,-8.34698 -4.01615001,-12.8639 -0.13499,-0.93209 -0.32912,-2.18027 -0.43105,-2.77297 -0.26163,-1.52285 -0.24691,-9.14047 0.0214,-10.93859 0.84767001,-5.67843 1.12013001,-6.95354 2.09501001,-9.79512 2.44246,-7.1204597 7.40487,-11.8926097 14.2423198,-13.69627967 4.99296,-1.31732 11.40408,-1.31205 16.20818,0.0124 5.05879,1.39510997 8.90301,4.55690997 10.56391,8.68832997 0.58437,1.4536897 1.05014,3.3253997 0.91571,3.6786997 -0.085,0.22218 -0.56743,0.24996 -4.36416,0.24996 -3.23485,0 -4.30416,-0.0467 -4.41498,-0.19248 -0.0805,-0.1058 -0.23386,-0.60853 -0.34051,-1.11679 -0.49299,-2.3496997 -1.96197,-4.8310497 -3.57454,-6.0372797 -1.98196,-1.48287 -3.72063,-2.03668 -6.7594,-2.15278 -1.81865,-0.0695 -2.36025,-0.033 -3.59426,0.24274 -6.62803,1.47925 -10.76888,7.7823297 -11.9517798,18.1920897 -0.25441,2.23888 -0.25413,9.53877 10e-4,12.24786 0.71824,7.6354 2.3857998,13.16163 5.3059798,17.58244 5.33292,8.07258 15.5902,10.56003 28.10553,6.81524 0.89071,-0.26663 1.58423,-0.40023 1.66339,-0.32024 0.075,0.0753 0.11637,0.89378 0.0922,1.81837 l -0.0436,1.68145 -1.07042,0.35551 c -1.72255,0.57188 -4.44831,1.23263 -6.42417,1.55758 -3.38623,0.55716 -8.63249,0.83128 -11.77736,0.61575 h -5.6e-4 z m 210.847142,0.0653 c -1.90726,-0.10277 -4.78577,-0.39134 -6.65359,-0.66715 -2.25082,-0.3319 -5.81341,-1.01403 -6.04254,-1.15679 -0.0925,-0.0577 -0.1522,-1.26983 -0.1522,-3.08987 0,-2.42441 0.0398,-2.99517 0.20831,-2.99517 0.11436,0 0.6824,0.21747 1.26177,0.48327 6.68719,3.0671 14.87808,4.19168 19.86688,2.72715 4.86353,-1.4276 7.53651,-4.97631 7.81482,-10.3745 0.11437,-2.21971 -0.17443,-3.85338 -0.97794,-5.52983 -1.69256,-3.53149 -4.28527,-5.62872 -11.73125,-9.48766 -6.21142,-3.2193 -8.34004,-4.48664 -10.66196,-6.34752 -3.94532,-3.16237 -6.01144,-6.81578 -6.36029,-11.24743 -0.40021,-5.08295 1.04543,-9.1796397 4.32945,-12.2689597 3.96198,-3.72702 10.13618,-5.37236997 18.58704,-4.95380997 3.49982,0.1736 7.28794,0.64187 10.12785,1.25205997 l 0.72629,0.1561 v 3.1618 c 0,2.4719 -0.0417,3.14377 -0.19109,3.07794 -5.49262,-2.41857 -10.47807,-3.6462 -14.80502,-3.6462 -4.85465,0 -8.57778,1.69451 -10.32645,4.69968 -1.52785,2.6263197 -1.672,5.8639597 -0.38328,8.6266497 1.7059,3.65703 4.33805,5.64011 13.85183,10.43644 7.11852,3.58869 10.90636,6.45222 13.36326,10.10229 2.21305,3.28736 3.04655,7.4971 2.37997,12.01818 -1.16985,7.93535 -6.78162,12.93692 -16.3551,14.57589 -1.31317,0.22496 -5.84703,0.57936 -6.65359,0.52048 -0.20997,-0.0153 -0.76073,-0.0484 -1.22317,-0.0731 z M 58.275728,63.805334 c -0.0397,-0.10746 -0.0894,-12.39701 -0.11137,-27.3098 -0.0367,-25.13145 -0.0586,-27.1714797 -0.30162,-27.8852697 -0.46994,-1.3826 -1.08236,-2.17527 -2.06279,-2.6691 -1.13124,-0.5702 -1.9067,-0.7499 -4.63607,-1.07375 l -2.21554,-0.26302 -0.0461,-0.71603 -0.0458,-0.71628 0.73435,-0.10056 c 4.50608,-0.61687 16.29678,-2.00502 16.41371,-1.93226 0.1,0.0624 0.13887,10.7855597 0.11331,31.4370397 l -0.0386,31.34234 -3.86589,0.0409 c -3.011,0.0322 -3.88144,-10e-4 -3.93755,-0.15415 z m 27.40951,0.0902 c -0.0575,-0.058 -0.10499,-12.45172 -0.10554,-27.54116 -0.002,-18.2643 -0.0544,-27.7663997 -0.16054,-28.4240997 -0.32051,-1.99168 -1.17096,-3.1518 -2.8388,-3.8731 -0.63075,-0.27275 -3.33067,-0.98488 -5.64149,-1.48758 -0.60242,-0.13108 -0.61158,-0.1436 -0.61158,-0.82073 v -0.68769 h 15.06582 c 13.763782,0 15.243862,0.0244 17.123902,0.28274 3.4465,0.47327 6.16976,1.30455 8.26642,2.52328 1.32955,0.77268 3.60759,3.07071 4.32417,4.36166 2.38829,4.3027797 2.70604,11.0991097 0.72491,15.5002197 -1.38205,3.06988 -4.48832,5.76091 -8.09118,7.00937 -1.28705,0.44605 -1.24095,0.33551 -1.24095,2.97795 0,3.05766 0.35273,6.69356 0.91988,9.48765 1.76866,8.71081 5.92063,13.86404 12.9997,16.13458 3.23681,1.03792 6.3728,1.24873 18.73619,1.25956 11.84097,0.01 14.59728,-0.29719 18.62119,-2.07918 8.22421,-3.64203 12.12149,-12.96582 11.68488,-27.95498 -0.24274,-8.33865 -1.61007,-13.95487 -4.43997,-18.23654 -1.09542,-1.65728 -1.92448,-2.5863297 -3.26903,-3.6625697 -3.17181,-2.53884 -6.93938,-3.78397 -12.27285,-4.05559 -3.50343,-0.17859 -5.68233,0.28774 -6.5211,1.39537 -0.94905,1.25345 -0.88934,-0.33523 -0.97348,25.8685997 l -0.0764,23.87969 h -3.90033 -3.90032 l -0.0816,-23.80248 c -0.0736,-21.41417 -0.10663,-23.8838597 -0.33079,-24.6134697 -0.76102,-2.47692 -1.93697,-3.25709 -6.45778,-4.28417 -1.25511,-0.28524 -2.34414,-0.58104 -2.42024,-0.6577 -0.0761,-0.0767 -0.11602,-0.37356 -0.0888,-0.65964 l 0.0495,-0.52048 12.00678,-0.047 c 7.67372,-0.03 12.89,0.0142 14.45396,0.1228 7.4532,0.51772 12.80668,1.99392 16.82505,4.63884 1.67756,1.10431 4.54801,4.01227 5.65343,5.7275997 2.80992,4.35888 4.29389,10.03592 4.6705,17.86685 0.39856,8.28449 -0.76184,15.97459 -3.18068,21.07949 -2.04391,4.31361 -5.65622,7.96424 -9.89928,10.00399 -3.51399,1.6895 -8.43669,2.79547 -14.37509,3.23014 -2.77574,0.2033 -22.58124,0.20218 -25.46697,-10e-4 -8.03536,-0.56659 -13.27384,-2.00946 -17.58967,-4.8441 -1.58952,-1.04404 -4.49886,-3.99559 -5.54651,-5.62677 -2.83963,-4.42137 -4.26083,-9.54571 -4.71716,-17.00836 -0.12804,-2.09555 -0.24108,-3.00905 -0.39301,-3.17375 -0.31135,-0.33718 -9.232972,-0.44105 -9.505432,-0.1105 -0.1336,0.1622 -0.18915,4.10059 -0.21803,15.53188 l -0.0392,15.3144 -3.83423,0.0409 c -2.10805,0.0222 -3.8806,-0.007 -3.9381,-0.0644 z m 14.04957,-34.55942 c 3.848112,-0.21663 5.890072,-0.65519 8.253652,-1.77337 2.28304,-1.07958 3.82145,-2.62522 4.91131,-4.93326 0.94044,-1.99168 1.38011,-4.60245 1.23262,-7.31793 -0.30802,-5.6662197 -3.45205,-9.1324397 -9.45933,-10.4289297 -1.58368,-0.34163 -7.600132,-0.40189 -8.629722,-0.0861 -1.45314,0.4455 -2.11778,1.28817 -2.36302,2.99573 -0.22164,1.54423 -0.18692,21.2819497 0.0378,21.5083097 0.22053,0.2222 2.46663,0.23553 6.01672,0.0355 z m 100.665852,34.55942 c -0.0575,-0.058 -0.10442,-12.01316 -0.10442,-26.56712 0,-18.09071 -0.0522,-26.83985 -0.16525,-27.6569697 -0.16888,-1.22484 -0.76962,-2.67798 -1.30955,-3.16793 -0.95517,-0.86738 -2.96323,-1.40259 -6.70831,-1.78837 l -1.07069,-0.11023 -0.0467,-0.73184 c -0.033,-0.52022 0.0111,-0.73435 0.15303,-0.74018 0.10995,-0.004 3.93449,-0.47577 8.49973,-1.04765 4.56498,-0.57187 8.36781,-0.99708 8.45114,-0.94543 0.0989,0.0616 0.13771,10.9071997 0.11243,31.4364797 l -0.0387,31.34233 -3.83422,0.0409 c -2.10862,0.0228 -3.88118,-0.006 -3.93866,-0.0638 z"
     id="path3849-6" />
</svg>
