<?xml version="1.0" encoding="UTF-8" standalone="no"?>
<!DOCTYPE svg PUBLIC "-//W3C//DTD SVG 1.1//EN" "http://www.w3.org/Graphics/SVG/1.1/DTD/svg11.dtd">
<svg width="100%" height="100%" viewBox="0 0 2000 2000" version="1.1" xmlns="http://www.w3.org/2000/svg" xmlns:xlink="http://www.w3.org/1999/xlink" xml:space="preserve" xmlns:serif="http://www.serif.com/" style="fill-rule:evenodd;clip-rule:evenodd;stroke-linejoin:round;stroke-miterlimit:2;">
    <g id="Layer1" transform="matrix(1,0,0,1,510,542)">
        <g transform="matrix(1,0,0,1,15,-15)">
            <rect x="35" y="32" width="893" height="883" style="fill:rgb(157,157,157);"/>
        </g>
        <g transform="matrix(1,0,0,1,15,-15)">
            <path d="M950,68.542C950,30.712 919.288,0 881.458,0L68.542,0C30.712,0 -0,30.712 -0,68.542L-0,881.458C-0,919.288 30.712,950 68.542,950L881.458,950C919.288,950 950,919.288 950,881.458L950,68.542ZM900,113.587C900,78.492 871.508,50 836.413,50L113.587,50C78.492,50 50,78.492 50,113.587L50,836.413C50,871.508 78.492,900 113.587,900L836.413,900C871.508,900 900,871.508 900,836.413L900,113.587Z" style="fill:rgb(214,214,214);"/>
        </g>
        <g transform="matrix(1,0,0,1,4.5,-22)">
            <g transform="matrix(1,0,0,1.42399,10.5,-194.735)">
                <rect x="116" y="214" width="719" height="524" style="fill:white;"/>
            </g>
            <path d="M745,403.161C745,353.952 705.048,314 655.839,314L328.161,314C278.952,314 239,353.952 239,403.161L239,604.839C239,654.048 278.952,694 328.161,694L655.839,694C705.048,694 745,654.048 745,604.839L745,403.161Z" style="fill:rgb(158,158,158);"/>
            <g transform="matrix(0.486166,0,0,0.831579,252.2,-10.7007)">
                <path d="M745,383.41C745,345.102 691.801,314 626.275,314L357.725,314C292.199,314 239,345.102 239,383.41L239,624.59C239,662.898 292.199,694 357.725,694L626.275,694C691.801,694 745,662.898 745,624.59L745,383.41Z" style="fill:rgb(158,158,158);"/>
            </g>
            <g transform="matrix(1.08483,0,0,1.08483,-66.4243,-80.9384)">
                <circle cx="514.197" cy="539.197" r="100.197" style="fill:rgb(235,235,235);"/>
            </g>
            <g transform="matrix(0.141688,0,0,0.141688,603.538,280.995)">
                <circle cx="514.197" cy="539.197" r="100.197" style="fill:rgb(235,235,235);"/>
            </g>
            <g transform="matrix(0.92,0,0,1,40.1333,0)">
                <rect x="403" y="273" width="175" height="11" style="fill:white;"/>
            </g>
        </g>
        <g id="outer-rim" serif:id="outer rim" transform="matrix(1.53846,0,0,1.25,-510,-542)">
            <path d="M0,0L1300,0L1300,1600L0,1600L0,0ZM13.867,17.067L1286.13,17.067C1286.13,177.738 1286.13,1422.26 1286.13,1582.93C1286.13,1582.93 152.632,1582.93 13.867,1582.93C13.867,1582.93 13.867,17.067 13.867,17.067Z" style="fill:rgb(189,189,189);"/>
        </g>
    </g>
</svg>
